<svg width="1440" height="1040" viewBox="0 0 1440 1040" fill="none" xmlns="http://www.w3.org/2000/svg">
<mask id="mask0_1_3283" style="mask-type:alpha" maskUnits="userSpaceOnUse" x="0" y="0" width="1440" height="1040">
<g clip-path="url(#clip0_1_3283)">
<path d="M771.746 205.764C771.746 353.024 564.07 484.542 443.965 484.542C323.859 484.542 -426.547 -31.9554 -426.547 -179.215C-426.547 -326.475 651.641 -123.745 771.746 -123.745C891.852 -123.745 771.746 58.504 771.746 205.764Z" fill="url(#paint0_linear_1_3283)"/>
<path d="M856.843 920.945C856.843 1068.21 759.478 1187.58 639.373 1187.58C519.267 1187.58 -149.824 1153.26 -149.824 1006C-149.824 858.738 -147.617 472.416 -27.5118 472.416C289.745 641.749 546.783 393.609 756.872 487.986C935.246 568.116 819.876 812.406 856.843 920.945Z" fill="url(#paint1_radial_1_3283)"/>
<path d="M1103.54 290.324C1427.61 583.012 1277.91 435.924 1556.25 428.514C1599.92 436.925 1674.04 437.325 1621.23 371.634C1555.21 289.519 1576.49 231.521 1493.99 142.057C1411.49 52.5932 1361.24 -38.3006 1236.69 -180.591C1112.13 -322.881 1102.55 -205.587 962.127 -216.706C821.707 -227.825 885.753 -210.168 692.009 -3.71061C498.264 202.746 779.474 -2.36474 1103.54 290.324Z" fill="#D9D9D9"/>
<path d="M797.593 750.706C363.913 801.764 573.189 786.005 395.431 1000.32C360.341 1027.64 311.216 1083.15 395.431 1086.68C500.699 1091.09 530.326 1145.3 651.983 1142.15C773.64 1139 875.126 1161.06 1064.23 1161.06C1253.34 1161.06 1171.39 1076.6 1272.25 978.261C1373.1 879.927 1317.63 916.487 1289.9 634.721C1262.16 352.956 1231.27 699.647 797.593 750.706Z" fill="#D9D9D9"/>
</g>
</mask>
<g mask="url(#mask0_1_3283)">
<line x1="-18.0771" y1="595.64" x2="1493.5" y2="595.64" stroke="#353336" stroke-opacity="0.11" stroke-width="1.2607"/>
<line x1="-18.0771" y1="918.378" x2="1493.5" y2="918.378" stroke="#353336" stroke-opacity="0.11" stroke-width="1.2607"/>
<line x1="-18.0771" y1="272.902" x2="1493.5" y2="272.902" stroke="#353336" stroke-opacity="0.11" stroke-width="1.2607"/>
<line x1="-18.0771" y1="434.27" x2="1493.5" y2="434.27" stroke="#353336" stroke-opacity="0.11" stroke-width="1.2607"/>
<line x1="-18.0771" y1="757.008" x2="1493.5" y2="757.008" stroke="#353336" stroke-opacity="0.11" stroke-width="1.2607"/>
<line x1="-18.0771" y1="111.532" x2="1493.5" y2="111.532" stroke="#353336" stroke-opacity="0.11" stroke-width="1.2607"/>
<line x1="-18.0771" y1="514.955" x2="1493.5" y2="514.955" stroke="#353336" stroke-opacity="0.11" stroke-width="1.2607"/>
<line x1="-18.0771" y1="837.693" x2="1493.5" y2="837.693" stroke="#353336" stroke-opacity="0.11" stroke-width="1.2607"/>
<line x1="-18.0771" y1="192.217" x2="1493.5" y2="192.217" stroke="#353336" stroke-opacity="0.11" stroke-width="1.2607"/>
<line x1="-18.0771" y1="999.063" x2="1493.5" y2="999.063" stroke="#353336" stroke-opacity="0.11" stroke-width="1.2607"/>
<line x1="-18.0771" y1="353.585" x2="1493.5" y2="353.585" stroke="#353336" stroke-opacity="0.11" stroke-width="1.2607"/>
<line x1="-18.0771" y1="676.325" x2="1493.5" y2="676.325" stroke="#353336" stroke-opacity="0.11" stroke-width="1.2607"/>
<line x1="-18.0771" y1="30.8466" x2="1493.5" y2="30.8466" stroke="#353336" stroke-opacity="0.11" stroke-width="1.2607"/>
<line x1="29.1977" y1="-78.2029" x2="29.1977" y2="1089.2" stroke="#353336" stroke-opacity="0.11" stroke-width="1.2607"/>
<line x1="674.678" y1="-78.2029" x2="674.678" y2="1089.2" stroke="#353336" stroke-opacity="0.11" stroke-width="1.2607"/>
<line x1="351.938" y1="-78.2031" x2="351.938" y2="1089.2" stroke="#353336" stroke-opacity="0.11" stroke-width="1.2607"/>
<line x1="997.414" y1="-78.2029" x2="997.414" y2="1089.2" stroke="#353336" stroke-opacity="0.11" stroke-width="1.2607"/>
<line x1="1320.15" y1="-78.2029" x2="1320.15" y2="1089.2" stroke="#353336" stroke-opacity="0.11" stroke-width="1.2607"/>
<line x1="190.569" y1="-78.2029" x2="190.569" y2="1089.2" stroke="#353336" stroke-opacity="0.11" stroke-width="1.2607"/>
<line x1="836.043" y1="-78.2029" x2="836.043" y2="1089.2" stroke="#353336" stroke-opacity="0.11" stroke-width="1.2607"/>
<line x1="513.309" y1="-78.2029" x2="513.309" y2="1089.2" stroke="#353336" stroke-opacity="0.11" stroke-width="1.2607"/>
<line x1="1158.79" y1="-78.2029" x2="1158.79" y2="1089.2" stroke="#353336" stroke-opacity="0.11" stroke-width="1.2607"/>
<line x1="109.885" y1="-78.2029" x2="109.885" y2="1089.2" stroke="#353336" stroke-opacity="0.11" stroke-width="1.2607"/>
<line x1="755.362" y1="-78.2029" x2="755.362" y2="1089.2" stroke="#353336" stroke-opacity="0.11" stroke-width="1.2607"/>
<line x1="432.622" y1="-78.2029" x2="432.622" y2="1089.2" stroke="#353336" stroke-opacity="0.11" stroke-width="1.2607"/>
<line x1="1078.1" y1="-78.2029" x2="1078.1" y2="1089.2" stroke="#353336" stroke-opacity="0.11" stroke-width="1.2607"/>
<line x1="1400.84" y1="-78.2029" x2="1400.84" y2="1089.2" stroke="#353336" stroke-opacity="0.11" stroke-width="1.2607"/>
<line x1="271.254" y1="-78.2029" x2="271.254" y2="1089.2" stroke="#353336" stroke-opacity="0.11" stroke-width="1.2607"/>
<line x1="916.731" y1="-78.2029" x2="916.731" y2="1089.2" stroke="#353336" stroke-opacity="0.11" stroke-width="1.2607"/>
<line x1="593.991" y1="-78.2029" x2="593.991" y2="1089.2" stroke="#353336" stroke-opacity="0.11" stroke-width="1.2607"/>
<line x1="1239.47" y1="-78.2029" x2="1239.47" y2="1089.2" stroke="#353336" stroke-opacity="0.11" stroke-width="1.2607"/>
</g>
<defs>
<linearGradient id="paint0_linear_1_3283" x1="92.8606" y1="-105.464" x2="547.342" y2="136.59" gradientUnits="userSpaceOnUse">
<stop stop-color="white"/>
<stop offset="1" stop-color="white" stop-opacity="0"/>
</linearGradient>
<radialGradient id="paint1_radial_1_3283" cx="0" cy="0" r="1" gradientUnits="userSpaceOnUse" gradientTransform="translate(169.132 927.204) rotate(-29.3932) scale(777.019 1335.47)">
<stop stop-color="white"/>
<stop offset="1" stop-color="white" stop-opacity="0"/>
</radialGradient>
<clipPath id="clip0_1_3283">
<rect width="1440" height="1039.32" fill="white"/>
</clipPath>
</defs>
</svg>
