<svg width="34" height="34" viewBox="0 0 34 34" fill="none" xmlns="http://www.w3.org/2000/svg">
<path d="M17 34C21.5087 34 25.8327 32.2089 29.0208 29.0208C32.2089 25.8327 34 21.5087 34 17C34 12.4913 32.2089 8.1673 29.0208 4.97919C25.8327 1.79107 21.5087 0 17 0C12.4913 0 8.1673 1.79107 4.97919 4.97919C1.79107 8.1673 0 12.4913 0 17C0 21.5087 1.79107 25.8327 4.97919 29.0208C8.1673 32.2089 12.4913 34 17 34ZM24.5039 13.8789L16.0039 22.3789C15.3797 23.0031 14.3703 23.0031 13.7527 22.3789L9.50274 18.1289C8.87852 17.5047 8.87852 16.4953 9.50274 15.8777C10.127 15.2602 11.1363 15.2535 11.7539 15.8777L14.875 18.9988L22.2461 11.6211C22.8703 10.9969 23.8797 10.9969 24.4973 11.6211C25.1148 12.2453 25.1215 13.2547 24.4973 13.8723L24.5039 13.8789Z" fill="#0283FA"/>
</svg>
