<svg width="33" height="33" viewBox="0 0 33 33" fill="none" xmlns="http://www.w3.org/2000/svg">
<path d="M16.5 0C20.8761 0 25.0729 1.73839 28.1673 4.83274C31.2616 7.92709 33 12.1239 33 16.5C33 20.8761 31.2616 25.0729 28.1673 28.1673C25.0729 31.2616 20.8761 33 16.5 33C12.1239 33 7.92709 31.2616 4.83274 28.1673C1.73839 25.0729 0 20.8761 0 16.5C0 12.1239 1.73839 7.92709 4.83274 4.83274C7.92709 1.73839 12.1239 0 16.5 0ZM14.9531 7.73438V16.5C14.9531 17.0156 15.2109 17.499 15.6428 17.7891L21.8303 21.9141C22.5393 22.391 23.4996 22.1977 23.9766 21.4822C24.4535 20.7668 24.2602 19.8129 23.5447 19.3359L18.0469 15.675V7.73438C18.0469 6.87715 17.3572 6.1875 16.5 6.1875C15.6428 6.1875 14.9531 6.87715 14.9531 7.73438Z" fill="#0283FA"/>
</svg>
