<svg width="38" height="34" viewBox="0 0 38 34" fill="none" xmlns="http://www.w3.org/2000/svg">
<path d="M4.75 2.375C4.75 1.06133 3.68867 0 2.375 0C1.06133 0 0 1.06133 0 2.375V27.3125C0 30.593 2.65703 33.25 5.9375 33.25H35.625C36.9387 33.25 38 32.1887 38 30.875C38 29.5613 36.9387 28.5 35.625 28.5H5.9375C5.28437 28.5 4.75 27.9656 4.75 27.3125V2.375ZM34.9273 8.80234C35.8551 7.87461 35.8551 6.36797 34.9273 5.44023C33.9996 4.5125 32.493 4.5125 31.5652 5.44023L23.75 13.2629L19.4898 9.00273C18.5621 8.075 17.0555 8.075 16.1277 9.00273L7.81523 17.3152C6.8875 18.243 6.8875 19.7496 7.81523 20.6773C8.74297 21.6051 10.2496 21.6051 11.1773 20.6773L17.8125 14.0496L22.0727 18.3098C23.0004 19.2375 24.507 19.2375 25.4348 18.3098L34.9348 8.80977L34.9273 8.80234Z" fill="#0283FA"/>
</svg>
