<svg width="595" height="512" viewBox="0 0 595 512" fill="none" xmlns="http://www.w3.org/2000/svg">
<g clip-path="url(#clip0_1_4132)">
<path d="M71.5097 427.998C74.0674 431.445 77.2381 434.392 80.8631 436.691C81.634 437.18 82.4254 437.641 83.2307 438.068H102.178C101.952 437.613 101.731 437.152 101.518 436.691C95.6427 424.294 93.8005 410.367 96.2498 396.869C98.6992 383.371 105.317 370.979 115.173 361.437C103.72 364.974 93.1348 371.871 86.2109 381.651C82.8465 386.414 80.454 391.793 79.1699 397.481C78.0257 386.105 79.8443 374.627 84.4489 364.162C75.1506 371.726 67.9097 382.084 65.15 393.744C62.3902 405.41 64.3929 418.356 71.5097 427.998Z" fill="#F0F0F0"/>
<path d="M592.002 272.572H463.181C462.387 272.571 461.626 272.255 461.064 271.693C460.502 271.131 460.186 270.37 460.186 269.576V189.886C460.186 189.092 460.502 188.331 461.064 187.769C461.626 187.207 462.387 186.892 463.181 186.891H592.002C592.797 186.892 593.558 187.207 594.12 187.769C594.681 188.331 594.997 189.092 594.998 189.886V269.576C594.997 270.37 594.681 271.131 594.12 271.693C593.558 272.255 592.797 272.571 592.002 272.572Z" fill="white"/>
<path d="M592.002 272.572H463.181C462.387 272.571 461.626 272.255 461.064 271.693C460.502 271.131 460.186 270.37 460.186 269.576V189.886C460.186 189.092 460.502 188.331 461.064 187.769C461.626 187.207 462.387 186.892 463.181 186.891H592.002C592.797 186.892 593.558 187.207 594.12 187.769C594.681 188.331 594.997 189.092 594.998 189.886V269.576C594.997 270.37 594.681 271.131 594.12 271.693C593.558 272.255 592.797 272.571 592.002 272.572ZM463.181 188.089C462.705 188.089 462.248 188.279 461.911 188.616C461.574 188.953 461.384 189.41 461.384 189.886V269.576C461.384 270.052 461.574 270.509 461.911 270.846C462.248 271.183 462.705 271.373 463.181 271.373H592.002C592.479 271.373 592.936 271.183 593.273 270.846C593.61 270.509 593.799 270.052 593.8 269.576V189.886C593.799 189.41 593.61 188.953 593.273 188.616C592.936 188.279 592.479 188.089 592.002 188.089H463.181Z" fill="#3F3D56"/>
<path d="M566.539 213.504H488.647C487.932 213.504 487.247 213.22 486.741 212.715C486.235 212.209 485.951 211.523 485.951 210.808C485.951 210.093 486.235 209.407 486.741 208.902C487.247 208.396 487.932 208.112 488.647 208.112H566.539C567.254 208.112 567.94 208.396 568.446 208.902C568.951 209.407 569.235 210.093 569.235 210.808C569.235 211.523 568.951 212.209 568.446 212.715C567.94 213.22 567.254 213.504 566.539 213.504Z" fill="#CCCCCC"/>
<path d="M566.539 232.079H488.647C487.932 232.079 487.247 231.794 486.741 231.289C486.235 230.783 485.951 230.097 485.951 229.382C485.951 228.667 486.235 227.981 486.741 227.476C487.247 226.97 487.932 226.686 488.647 226.686H566.539C567.254 226.686 567.94 226.97 568.446 227.476C568.951 227.981 569.235 228.667 569.235 229.382C569.235 230.097 568.951 230.783 568.446 231.289C567.94 231.794 567.254 232.079 566.539 232.079Z" fill="#CCCCCC"/>
<path d="M559.601 261.528C564.922 261.528 569.236 257.214 569.236 251.893C569.236 246.571 564.922 242.257 559.601 242.257C554.279 242.257 549.965 246.571 549.965 251.893C549.965 257.214 554.279 261.528 559.601 261.528Z" fill="#0283FA"/>
<path d="M559.867 247.354V246.436H560.139V247.354C560.523 247.37 560.901 247.463 561.25 247.625C561.503 247.744 561.722 247.926 561.884 248.154C562.034 248.365 562.115 248.617 562.114 248.876C562.119 249.065 562.056 249.249 561.935 249.395C561.884 249.461 561.817 249.515 561.741 249.552C561.665 249.588 561.582 249.607 561.498 249.606C561.435 249.608 561.372 249.596 561.314 249.572C561.256 249.548 561.203 249.513 561.159 249.467C561.114 249.423 561.078 249.369 561.054 249.31C561.03 249.251 561.019 249.187 561.02 249.123C561.021 249.034 561.039 248.945 561.075 248.863L561.184 248.634C561.222 248.538 561.24 248.435 561.238 248.332C561.241 248.172 561.19 248.016 561.093 247.888C560.987 247.755 560.844 247.655 560.682 247.601C560.506 247.543 560.324 247.507 560.139 247.492V250.796L560.199 250.832C560.767 251.133 561.283 251.522 561.727 251.986C561.924 252.219 562.08 252.483 562.189 252.768C562.298 253.044 562.354 253.338 562.355 253.635C562.36 254.019 562.26 254.397 562.065 254.728C561.875 255.051 561.596 255.313 561.262 255.483C560.909 255.656 560.529 255.766 560.139 255.809V256.793H559.867V255.827C559.473 255.824 559.083 255.744 558.719 255.592C558.357 255.457 558.037 255.227 557.792 254.927C557.577 254.658 557.461 254.323 557.463 253.979C557.456 253.737 557.53 253.5 557.675 253.305C557.732 253.222 557.808 253.153 557.898 253.105C557.987 253.057 558.087 253.032 558.188 253.031C558.249 253.029 558.309 253.039 558.366 253.061C558.422 253.084 558.474 253.117 558.517 253.16C558.56 253.203 558.594 253.254 558.616 253.311C558.638 253.367 558.649 253.428 558.647 253.489C558.626 253.675 558.548 253.85 558.423 253.989C558.358 254.075 558.303 254.168 558.257 254.266C558.226 254.343 558.211 254.425 558.212 254.507C558.213 254.727 558.289 254.941 558.427 255.113C558.577 255.305 558.776 255.454 559.003 255.543C559.263 255.645 559.54 255.694 559.819 255.688H559.867V251.744L559.523 251.545C559.197 251.356 558.948 251.199 558.777 251.074C558.61 250.953 558.455 250.815 558.315 250.663C557.968 250.294 557.775 249.805 557.777 249.298C557.776 248.983 557.855 248.672 558.007 248.395C558.156 248.12 558.374 247.887 558.641 247.722C559.012 247.498 559.434 247.371 559.867 247.354ZM559.867 247.486C559.633 247.494 559.402 247.545 559.187 247.637C558.973 247.744 558.796 247.914 558.682 248.125C558.553 248.355 558.486 248.615 558.49 248.879C558.487 249.2 558.586 249.515 558.772 249.777C558.871 249.92 558.989 250.048 559.124 250.157C559.342 250.32 559.57 250.469 559.807 250.603L559.867 250.639V247.486ZM560.139 255.676C560.294 255.663 560.448 255.631 560.596 255.58C560.715 255.533 560.827 255.468 560.926 255.386C561.113 255.227 561.257 255.025 561.347 254.797C561.452 254.546 561.505 254.276 561.504 254.003C561.48 253.566 561.341 253.142 561.101 252.775C560.862 252.408 560.53 252.111 560.139 251.913V255.676Z" fill="white"/>
<path d="M504.25 219.231H375.429C374.635 219.23 373.874 218.914 373.312 218.353C372.75 217.791 372.435 217.03 372.434 216.235V136.546C372.435 135.752 372.75 134.99 373.312 134.429C373.874 133.867 374.635 133.551 375.429 133.55H504.25C505.045 133.551 505.806 133.867 506.368 134.429C506.929 134.99 507.245 135.752 507.246 136.546V216.235C507.245 217.03 506.929 217.791 506.368 218.353C505.806 218.914 505.045 219.23 504.25 219.231Z" fill="white"/>
<path d="M504.25 219.231H375.429C374.635 219.23 373.874 218.914 373.312 218.353C372.75 217.791 372.435 217.03 372.434 216.235V136.546C372.435 135.752 372.75 134.99 373.312 134.429C373.874 133.867 374.635 133.551 375.429 133.55H504.25C505.045 133.551 505.806 133.867 506.368 134.429C506.929 134.99 507.245 135.752 507.246 136.546V216.235C507.245 217.03 506.929 217.791 506.368 218.353C505.806 218.914 505.045 219.23 504.25 219.231ZM375.429 134.749C374.953 134.749 374.496 134.939 374.159 135.276C373.822 135.613 373.632 136.07 373.632 136.546V216.235C373.632 216.712 373.822 217.169 374.159 217.506C374.496 217.843 374.953 218.032 375.429 218.033H504.25C504.727 218.032 505.184 217.843 505.521 217.506C505.858 217.169 506.047 216.712 506.048 216.235V136.546C506.047 136.07 505.858 135.613 505.521 135.276C505.184 134.939 504.727 134.749 504.25 134.749H375.429Z" fill="#3F3D56"/>
<path d="M478.787 160.164H400.895C400.18 160.164 399.495 159.88 398.989 159.375C398.483 158.869 398.199 158.183 398.199 157.468C398.199 156.753 398.483 156.067 398.989 155.561C399.495 155.056 400.18 154.772 400.895 154.772H478.787C479.502 154.772 480.188 155.056 480.694 155.561C481.199 156.067 481.483 156.753 481.483 157.468C481.483 158.183 481.199 158.869 480.694 159.375C480.188 159.88 479.502 160.164 478.787 160.164Z" fill="#CCCCCC"/>
<path d="M478.787 178.738H400.895C400.18 178.738 399.495 178.454 398.989 177.949C398.483 177.443 398.199 176.757 398.199 176.042C398.199 175.327 398.483 174.641 398.989 174.136C399.495 173.63 400.18 173.346 400.895 173.346H478.787C479.502 173.346 480.188 173.63 480.694 174.136C481.199 174.641 481.483 175.327 481.483 176.042C481.483 176.757 481.199 177.443 480.694 177.949C480.188 178.454 479.502 178.738 478.787 178.738Z" fill="#CCCCCC"/>
<path d="M471.847 208.188C477.168 208.188 481.482 203.874 481.482 198.553C481.482 193.231 477.168 188.917 471.847 188.917C466.525 188.917 462.211 193.231 462.211 198.553C462.211 203.874 466.525 208.188 471.847 208.188Z" fill="#0283FA"/>
<path d="M472.112 194.013V193.095H472.383V194.013C472.768 194.03 473.146 194.122 473.495 194.285C473.748 194.404 473.966 194.586 474.129 194.814C474.279 195.024 474.359 195.277 474.358 195.535C474.364 195.724 474.301 195.909 474.18 196.055C474.128 196.121 474.062 196.175 473.986 196.211C473.91 196.248 473.827 196.267 473.742 196.266C473.679 196.267 473.617 196.256 473.559 196.232C473.501 196.208 473.448 196.172 473.404 196.127C473.359 196.082 473.323 196.029 473.299 195.969C473.275 195.91 473.263 195.847 473.265 195.783C473.265 195.694 473.284 195.605 473.319 195.523L473.428 195.294C473.467 195.198 473.485 195.095 473.483 194.992C473.486 194.832 473.435 194.675 473.338 194.548C473.232 194.414 473.089 194.315 472.927 194.261C472.751 194.203 472.568 194.167 472.383 194.152V197.456L472.444 197.492C473.011 197.793 473.527 198.182 473.972 198.646C474.169 198.879 474.325 199.143 474.434 199.428C474.542 199.704 474.599 199.998 474.6 200.294C474.605 200.678 474.505 201.056 474.31 201.388C474.12 201.711 473.841 201.973 473.507 202.143C473.154 202.315 472.774 202.426 472.383 202.469V203.453H472.112V202.487C471.717 202.484 471.328 202.404 470.964 202.251C470.601 202.116 470.281 201.887 470.037 201.587C469.822 201.318 469.706 200.983 469.708 200.639C469.7 200.397 469.775 200.159 469.919 199.965C469.976 199.881 470.053 199.813 470.142 199.765C470.232 199.717 470.331 199.692 470.433 199.69C470.493 199.688 470.554 199.699 470.61 199.721C470.667 199.743 470.718 199.777 470.762 199.82C470.805 199.863 470.838 199.914 470.861 199.971C470.883 200.027 470.894 200.088 470.892 200.148C470.871 200.334 470.793 200.509 470.668 200.649C470.603 200.735 470.547 200.828 470.502 200.926C470.471 201.002 470.456 201.084 470.457 201.167C470.458 201.387 470.533 201.601 470.671 201.772C470.822 201.965 471.021 202.114 471.248 202.203C471.508 202.304 471.785 202.354 472.063 202.348H472.112V198.404L471.767 198.205C471.441 198.016 471.193 197.858 471.021 197.734C470.854 197.612 470.699 197.475 470.559 197.323C470.212 196.953 470.02 196.465 470.022 195.958C470.02 195.642 470.099 195.332 470.251 195.055C470.4 194.779 470.619 194.547 470.886 194.382C471.257 194.158 471.678 194.031 472.112 194.013ZM472.112 194.146C471.878 194.153 471.647 194.205 471.432 194.297C471.217 194.403 471.041 194.574 470.927 194.785C470.797 195.015 470.731 195.275 470.734 195.539C470.732 195.86 470.831 196.174 471.017 196.437C471.116 196.579 471.234 196.707 471.369 196.817C471.587 196.979 471.815 197.128 472.051 197.263L472.112 197.299V194.146ZM472.383 202.336C472.539 202.323 472.693 202.29 472.84 202.239C472.96 202.193 473.072 202.128 473.171 202.046C473.357 201.887 473.502 201.685 473.592 201.457C473.697 201.206 473.75 200.935 473.748 200.663C473.724 200.225 473.586 199.802 473.346 199.435C473.106 199.068 472.774 198.771 472.383 198.573V202.336Z" fill="white"/>
<path d="M237.208 207.341C236.085 207.259 234.959 207.425 233.908 207.827C232.857 208.228 231.906 208.855 231.123 209.663C230.341 210.472 229.745 211.442 229.378 212.505C229.01 213.569 228.881 214.7 228.998 215.819L204.233 227.43L216.354 234.852L238.013 222.689C239.88 222.367 241.565 221.372 242.747 219.891C243.929 218.411 244.527 216.549 244.428 214.657C244.328 212.765 243.539 210.975 242.208 209.627C240.877 208.278 239.098 207.465 237.208 207.341Z" fill="#FFB6B6"/>
<path d="M134.726 430.721L143.279 430.72L147.348 397.73L134.725 397.731L134.726 430.721Z" fill="#FFB6B6"/>
<path d="M132.545 427.928L149.389 427.928H149.389C152.236 427.928 154.966 429.059 156.979 431.072C158.992 433.085 160.123 435.815 160.123 438.662V439.01L132.545 439.012L132.545 427.928Z" fill="#2F2E41"/>
<path d="M178.37 430.721L186.923 430.72L190.992 397.73L178.369 397.731L178.37 430.721Z" fill="#FFB6B6"/>
<path d="M176.188 427.928L193.031 427.928H193.032C195.879 427.928 198.609 429.059 200.622 431.072C202.635 433.085 203.766 435.815 203.766 438.662V439.01L176.188 439.012L176.188 427.928Z" fill="#2F2E41"/>
<path d="M184.081 259.612L188.422 268.957L196.248 352.539L190.165 424.378H175.936L159.147 311.142L151.261 421.769L132.062 420.994L128.377 271.008L184.081 259.612Z" fill="#2F2E41"/>
<path d="M114.905 182.482L132.902 175.16L158.305 176.584L180.889 184.814L188.424 268.958C168.776 279.686 148.874 282.615 128.626 274.943L109.834 220.139L114.905 182.482Z" fill="#E4E4E4"/>
<path d="M173.865 187.039L181.851 184.814C181.851 184.814 187.892 180.886 189.88 192.562C191.867 204.238 202.094 222.4 202.094 222.4L219.602 213.069L227.707 230.771L200.059 247.518L170.943 218.182L173.865 187.039Z" fill="#E4E4E4"/>
<path d="M130.053 159.57C129.083 157.369 128.556 154.999 128.503 152.595C128.449 150.19 128.869 147.799 129.739 145.557C130.61 143.315 131.913 141.266 133.575 139.528C135.237 137.79 137.226 136.396 139.426 135.426C141.627 134.456 143.998 133.929 146.402 133.875C148.806 133.821 151.198 134.242 153.44 135.112C155.682 135.982 157.731 137.286 159.469 138.948C161.207 140.61 162.601 142.598 163.571 144.799L163.676 145.041C165.603 149.501 165.679 154.543 163.888 159.059C163.002 161.295 161.683 163.335 160.008 165.061C158.334 166.788 156.335 168.168 154.127 169.122C149.667 171.049 144.625 171.125 140.109 169.335C135.593 167.544 131.973 164.033 130.046 159.573L130.053 159.57Z" fill="#FFB6B6"/>
<path d="M154.916 142.809C158.724 143.499 164.617 145.897 167.888 143.084C166.272 141.197 164.241 139.711 161.953 138.743C161.502 138.594 161.085 138.358 160.724 138.049C159.609 136.922 160.471 134.98 159.961 133.457C159.713 132.9 159.339 132.409 158.869 132.021C158.399 131.633 157.845 131.36 157.251 131.223C156.116 130.883 154.926 130.828 153.811 130.416C151.172 129.424 149.296 126.586 146.591 125.815C144.235 125.133 141.863 126.193 139.829 127.429C137.795 128.665 135.783 130.132 133.404 130.367C131.626 130.529 130.5 133.454 128.715 133.54C124.974 133.722 125.182 131.256 124.905 135.186C124.745 137.531 121.395 142.197 121.449 144.562C121.504 146.112 121.23 147.647 121.274 149.202C121.375 152.163 122.563 154.984 124.611 157.125C126.314 158.876 128.529 160.058 129.963 162.054C130.708 163.114 131.225 164.351 132.093 165.31C132.961 166.269 134.431 166.846 135.4 166.161C136.368 165.477 136.386 163.995 136.867 162.868C137.162 162.176 137.665 161.595 138.307 161.204C138.949 160.813 139.697 160.633 140.446 160.689C141.225 160.79 141.959 161.107 142.567 161.604C143.175 162.1 143.633 162.756 143.888 163.498C143.435 161.007 142.239 158.672 141.785 156.179C141.33 153.685 141.922 150.707 144.069 149.733C144.991 149.304 146.237 149.189 146.607 148.2C146.834 147.605 146.626 146.902 146.714 146.258C147.186 143.102 152.433 142.321 154.916 142.809Z" fill="#2F2E41"/>
<path d="M130.782 273.97C130.618 272.857 130.212 271.793 129.592 270.854C128.972 269.915 128.154 269.123 127.196 268.534C126.237 267.945 125.16 267.574 124.043 267.446C122.925 267.318 121.792 267.437 120.725 267.794L104.022 246.135L99.4043 259.577L115.974 278.084C116.693 279.837 118.029 281.265 119.731 282.098C121.432 282.932 123.38 283.112 125.205 282.605C127.031 282.097 128.606 280.938 129.634 279.347C130.662 277.756 131.071 275.842 130.782 273.97Z" fill="#FFB6B6"/>
<path d="M120.672 186.567L114.902 182.482C114.902 182.482 101.704 181.726 99.7836 192.563L75.582 232.375L105.589 273.772L120.137 258.458L101.78 237.006L117.193 208.708L120.672 186.567Z" fill="#E4E4E4"/>
<path d="M261.235 192.876H260.932V184.584C260.932 183.954 260.808 183.33 260.567 182.748C260.326 182.165 259.972 181.636 259.527 181.191C259.081 180.745 258.552 180.392 257.97 180.15C257.387 179.909 256.763 179.785 256.133 179.785H238.567C237.936 179.785 237.312 179.909 236.73 180.15C236.148 180.392 235.619 180.745 235.173 181.191C234.728 181.636 234.374 182.165 234.133 182.748C233.892 183.33 233.768 183.954 233.768 184.584V230.072C233.768 230.702 233.892 231.326 234.133 231.908C234.374 232.491 234.728 233.02 235.173 233.465C235.619 233.911 236.148 234.264 236.73 234.506C237.312 234.747 237.936 234.871 238.566 234.871H256.133C256.763 234.871 257.387 234.747 257.97 234.506C258.552 234.264 259.081 233.911 259.527 233.465C259.972 233.02 260.326 232.491 260.567 231.908C260.808 231.326 260.932 230.702 260.932 230.072V198.778H261.235V192.876Z" fill="#3F3D56"/>
<path d="M256.323 181.034H254.03C254.135 181.292 254.176 181.573 254.147 181.85C254.119 182.128 254.022 182.395 253.867 182.626C253.711 182.858 253.5 183.048 253.254 183.179C253.008 183.311 252.733 183.379 252.454 183.379H242.39C242.111 183.379 241.836 183.311 241.589 183.179C241.343 183.048 241.133 182.858 240.977 182.626C240.821 182.395 240.725 182.128 240.696 181.85C240.668 181.573 240.708 181.292 240.813 181.034H238.672C237.721 181.034 236.81 181.411 236.138 182.083C235.465 182.755 235.088 183.667 235.088 184.617V230.039C235.088 230.989 235.465 231.901 236.138 232.573C236.81 233.245 237.721 233.622 238.672 233.622H256.323C257.273 233.622 258.185 233.245 258.857 232.573C259.529 231.901 259.907 230.989 259.907 230.039V184.617C259.907 183.667 259.529 182.755 258.857 182.083C258.185 181.411 257.273 181.034 256.323 181.034Z" fill="#0283FA"/>
<path d="M414.776 164.859H285.955C285.161 164.858 284.399 164.542 283.837 163.98C283.276 163.419 282.96 162.657 282.959 161.863V82.1736C282.96 81.3793 283.276 80.6178 283.837 80.0562C284.399 79.4946 285.161 79.1786 285.955 79.1777H414.776C415.57 79.1786 416.332 79.4946 416.893 80.0562C417.455 80.6178 417.771 81.3793 417.772 82.1736V161.863C417.771 162.657 417.455 163.419 416.893 163.98C416.332 164.542 415.57 164.858 414.776 164.859Z" fill="white"/>
<path d="M414.776 164.859H285.955C285.161 164.858 284.399 164.542 283.837 163.98C283.276 163.419 282.96 162.657 282.959 161.863V82.1736C282.96 81.3793 283.276 80.6178 283.837 80.0562C284.399 79.4946 285.161 79.1786 285.955 79.1777H414.776C415.57 79.1786 416.332 79.4946 416.893 80.0562C417.455 80.6178 417.771 81.3793 417.772 82.1736V161.863C417.771 162.657 417.455 163.419 416.893 163.98C416.332 164.542 415.57 164.858 414.776 164.859ZM285.955 80.3761C285.478 80.3766 285.021 80.5661 284.684 80.9031C284.347 81.2401 284.158 81.697 284.157 82.1736V161.863C284.158 162.339 284.347 162.796 284.684 163.133C285.021 163.47 285.478 163.66 285.955 163.66H414.776C415.252 163.66 415.709 163.47 416.046 163.133C416.383 162.796 416.573 162.339 416.573 161.863V82.1736C416.573 81.697 416.383 81.2401 416.046 80.9031C415.709 80.5661 415.252 80.3766 414.776 80.3761H285.955Z" fill="#3F3D56"/>
<path d="M389.313 105.791H311.421C310.706 105.791 310.02 105.507 309.514 105.002C309.009 104.496 308.725 103.81 308.725 103.095C308.725 102.38 309.009 101.694 309.514 101.189C310.02 100.683 310.706 100.399 311.421 100.399H389.313C390.028 100.399 390.714 100.683 391.219 101.189C391.725 101.694 392.009 102.38 392.009 103.095C392.009 103.81 391.725 104.496 391.219 105.002C390.714 105.507 390.028 105.791 389.313 105.791Z" fill="#CCCCCC"/>
<path d="M389.313 124.366H311.421C310.706 124.366 310.02 124.082 309.514 123.576C309.009 123.07 308.725 122.384 308.725 121.669C308.725 120.954 309.009 120.269 309.514 119.763C310.02 119.257 310.706 118.973 311.421 118.973H389.313C390.028 118.973 390.714 119.257 391.219 119.763C391.725 120.269 392.009 120.954 392.009 121.669C392.009 122.384 391.725 123.07 391.219 123.576C390.714 124.082 390.028 124.366 389.313 124.366Z" fill="#CCCCCC"/>
<path d="M382.372 153.816C387.694 153.816 392.008 149.501 392.008 144.18C392.008 138.858 387.694 134.544 382.372 134.544C377.05 134.544 372.736 138.858 372.736 144.18C372.736 149.501 377.05 153.816 382.372 153.816Z" fill="#0283FA"/>
<path d="M382.639 139.641V138.723H382.91V139.641C383.295 139.657 383.673 139.75 384.022 139.912C384.275 140.031 384.493 140.213 384.656 140.441C384.806 140.652 384.886 140.904 384.885 141.163C384.891 141.352 384.828 141.536 384.707 141.682C384.655 141.748 384.589 141.802 384.513 141.839C384.437 141.875 384.354 141.894 384.269 141.893C384.206 141.895 384.144 141.883 384.086 141.859C384.028 141.835 383.975 141.8 383.931 141.755C383.886 141.71 383.85 141.656 383.826 141.597C383.802 141.538 383.791 141.474 383.792 141.41C383.792 141.321 383.811 141.233 383.847 141.151L383.955 140.921C383.994 140.825 384.012 140.722 384.01 140.619C384.013 140.459 383.962 140.303 383.865 140.175C383.759 140.042 383.616 139.942 383.454 139.888C383.278 139.831 383.095 139.794 382.91 139.78V143.083L382.971 143.119C383.539 143.42 384.054 143.809 384.499 144.273C384.696 144.506 384.852 144.77 384.961 145.055C385.069 145.331 385.126 145.625 385.127 145.922C385.132 146.306 385.032 146.684 384.837 147.015C384.647 147.338 384.368 147.6 384.034 147.77C383.681 147.943 383.301 148.053 382.91 148.096V149.081H382.639V148.114C382.245 148.111 381.855 148.031 381.491 147.879C381.128 147.744 380.808 147.514 380.564 147.214C380.349 146.945 380.233 146.611 380.235 146.266C380.227 146.024 380.302 145.787 380.446 145.593C380.503 145.509 380.58 145.44 380.669 145.392C380.759 145.344 380.858 145.319 380.96 145.318C381.02 145.316 381.081 145.326 381.138 145.348C381.194 145.371 381.246 145.404 381.289 145.447C381.332 145.49 381.365 145.542 381.388 145.598C381.41 145.655 381.421 145.715 381.419 145.776C381.398 145.962 381.32 146.137 381.195 146.276C381.13 146.362 381.074 146.455 381.029 146.553C380.998 146.63 380.983 146.712 380.984 146.794C380.985 147.015 381.06 147.228 381.198 147.4C381.349 147.592 381.548 147.741 381.775 147.831C382.035 147.932 382.312 147.981 382.59 147.975H382.639V144.031L382.294 143.832C381.968 143.643 381.72 143.486 381.548 143.361C381.381 143.24 381.227 143.102 381.086 142.95C380.74 142.581 380.547 142.092 380.549 141.585C380.547 141.27 380.626 140.959 380.778 140.683C380.928 140.407 381.146 140.175 381.413 140.009C381.784 139.785 382.205 139.659 382.639 139.641ZM382.639 139.774C382.405 139.781 382.174 139.832 381.959 139.924C381.744 140.031 381.568 140.201 381.454 140.413C381.324 140.642 381.258 140.902 381.262 141.166C381.259 141.488 381.358 141.802 381.544 142.064C381.643 142.207 381.761 142.335 381.896 142.444C382.114 142.607 382.342 142.756 382.579 142.89L382.639 142.926V139.774ZM382.91 147.963C383.066 147.95 383.22 147.918 383.367 147.867C383.487 147.82 383.599 147.755 383.698 147.673C383.885 147.515 384.029 147.312 384.119 147.085C384.224 146.833 384.277 146.563 384.275 146.29C384.251 145.853 384.113 145.429 383.873 145.062C383.633 144.696 383.301 144.398 382.91 144.201V147.963Z" fill="white"/>
<path d="M279.916 439.444H17.6883C17.5057 439.444 17.3307 439.371 17.2016 439.242C17.0725 439.113 17 438.938 17 438.756C17 438.573 17.0725 438.398 17.2016 438.269C17.3307 438.14 17.5057 438.067 17.6883 438.067H279.916C280.098 438.067 280.274 438.14 280.403 438.269C280.532 438.398 280.604 438.573 280.604 438.756C280.604 438.938 280.532 439.113 280.403 439.242C280.274 439.371 280.098 439.444 279.916 439.444Z" fill="#CACACA"/>
</g>
<defs>
<clipPath id="clip0_1_4132">
<rect width="578" height="360.266" fill="white" transform="translate(17 79.1777)"/>
</clipPath>
</defs>
</svg>
