<svg width="560" height="512" viewBox="0 0 560 512" fill="none" xmlns="http://www.w3.org/2000/svg">
<g clip-path="url(#clip0_1_4053)">
<path d="M424.954 459.203L437.318 455.281C438.859 448.646 438.756 441.734 437.02 435.147C432.053 446.192 417.48 448.897 409.177 457.713C406.609 460.482 404.696 463.793 403.581 467.402C402.467 471.011 402.178 474.824 402.738 478.56L400.137 487.383C406.212 486.864 412.102 485.034 417.402 482.02C422.702 479.005 427.285 474.877 430.836 469.921C432.801 467.12 434.405 464.084 435.61 460.882C430.338 460.354 424.954 459.203 424.954 459.203Z" fill="#F2F2F2"/>
<path d="M411.743 442.886L421.06 433.862C419.479 427.236 416.306 421.096 411.814 415.975C412.294 428.075 400.457 436.996 396.957 448.589C395.893 452.213 395.658 456.03 396.27 459.757C396.882 463.484 398.324 467.026 400.491 470.119L402.098 479.177C407.304 476.003 411.76 471.738 415.159 466.676C418.558 461.614 420.819 455.876 421.787 449.856C422.296 446.473 422.378 443.04 422.029 439.637C417.075 441.516 411.743 442.886 411.743 442.886Z" fill="#F2F2F2"/>
<path d="M349.808 116.45H1.35471C0.99228 116.442 0.64729 116.293 0.393684 116.034C0.140078 115.775 -0.00195312 115.427 -0.00195312 115.064C-0.00195312 114.702 0.140078 114.354 0.393684 114.095C0.64729 113.836 0.99228 113.686 1.35471 113.679H349.808C350.171 113.686 350.516 113.836 350.769 114.095C351.023 114.354 351.165 114.702 351.165 115.064C351.165 115.427 351.023 115.775 350.769 116.034C350.516 116.293 350.171 116.442 349.808 116.45Z" fill="#3F3D56"/>
<path d="M25.0759 106.604C29.561 106.604 33.1968 102.887 33.1968 98.3018C33.1968 93.7169 29.561 90 25.0759 90C20.5909 90 16.9551 93.7169 16.9551 98.3018C16.9551 102.887 20.5909 106.604 25.0759 106.604Z" fill="#3F3D56"/>
<path d="M53.1288 106.604C57.6138 106.604 61.2497 102.887 61.2497 98.3018C61.2497 93.7169 57.6138 90 53.1288 90C48.6438 90 45.0079 93.7169 45.0079 98.3018C45.0079 102.887 48.6438 106.604 53.1288 106.604Z" fill="#3F3D56"/>
<path d="M81.1834 106.604C85.6684 106.604 89.3042 102.887 89.3042 98.3018C89.3042 93.7169 85.6684 90 81.1834 90C76.6983 90 73.0625 93.7169 73.0625 98.3018C73.0625 102.887 76.6983 106.604 81.1834 106.604Z" fill="#3F3D56"/>
<path d="M332.919 92.0576H312.991C312.596 92.0655 312.22 92.2279 311.943 92.51C311.667 92.7921 311.512 93.1715 311.512 93.5665C311.512 93.9616 311.667 94.3409 311.943 94.623C312.22 94.9051 312.596 95.0676 312.991 95.0754H332.919C333.314 95.0676 333.69 94.9051 333.967 94.623C334.243 94.3409 334.398 93.9616 334.398 93.5665C334.398 93.1715 334.243 92.7921 333.967 92.51C333.69 92.2279 333.314 92.0655 332.919 92.0576Z" fill="#3F3D56"/>
<path d="M332.917 97.7217H312.989C312.594 97.7295 312.218 97.8919 311.941 98.174C311.665 98.4562 311.51 98.8355 311.51 99.2306C311.51 99.6257 311.665 100.005 311.941 100.287C312.218 100.569 312.594 100.732 312.989 100.739H332.917C333.312 100.732 333.688 100.569 333.965 100.287C334.242 100.005 334.397 99.6257 334.397 99.2306C334.397 98.8355 334.242 98.4562 333.965 98.174C333.688 97.8919 333.312 97.7295 332.917 97.7217Z" fill="#3F3D56"/>
<path d="M332.917 103.378H312.989C312.594 103.386 312.218 103.549 311.941 103.831C311.665 104.113 311.51 104.492 311.51 104.887C311.51 105.282 311.665 105.662 311.941 105.944C312.218 106.226 312.594 106.388 312.989 106.396H332.917C333.312 106.388 333.688 106.226 333.965 105.944C334.242 105.662 334.397 105.282 334.397 104.887C334.397 104.492 334.242 104.113 333.965 103.831C333.688 103.549 333.312 103.386 332.917 103.378Z" fill="#3F3D56"/>
<path d="M26.9949 172.75C32.5398 172.75 37.0348 168.255 37.0348 162.71C37.0348 157.165 32.5398 152.67 26.9949 152.67C21.4501 152.67 16.9551 157.165 16.9551 162.71C16.9551 168.255 21.4501 172.75 26.9949 172.75Z" fill="#E6E7E8"/>
<path d="M282.661 184.942H19.9447C19.1518 184.942 18.3914 184.627 17.8307 184.066C17.27 183.505 16.9551 182.745 16.9551 181.952C16.9551 181.159 17.27 180.399 17.8307 179.838C18.3914 179.277 19.1518 178.962 19.9447 178.962H282.661C283.454 178.962 284.214 179.277 284.775 179.838C285.336 180.399 285.651 181.159 285.651 181.952C285.651 182.745 285.336 183.505 284.775 184.066C284.214 184.627 283.454 184.942 282.661 184.942Z" fill="#E6E7E8"/>
<path d="M213.757 196.755H19.9429C19.15 196.755 18.3895 196.441 17.8288 195.88C17.2681 195.319 16.9531 194.559 16.9531 193.766C16.9531 192.973 17.2681 192.212 17.8288 191.652C18.3895 191.091 19.15 190.776 19.9429 190.776H213.757C214.55 190.776 215.311 191.091 215.871 191.652C216.432 192.212 216.747 192.973 216.747 193.766C216.747 194.559 216.432 195.319 215.871 195.88C215.311 196.441 214.55 196.755 213.757 196.755Z" fill="#E6E7E8"/>
<path d="M26.9949 329.457C32.5398 329.457 37.0348 324.962 37.0348 319.417C37.0348 313.872 32.5398 309.377 26.9949 309.377C21.4501 309.377 16.9551 313.872 16.9551 319.417C16.9551 324.962 21.4501 329.457 26.9949 329.457Z" fill="#E6E7E8"/>
<path d="M282.66 341.648H19.9439C19.5509 341.649 19.1616 341.572 18.7983 341.422C18.4351 341.272 18.1049 341.052 17.8268 340.774C17.5487 340.497 17.328 340.167 17.1775 339.804C17.027 339.441 16.9495 339.052 16.9495 338.659C16.9495 338.266 17.027 337.876 17.1775 337.513C17.328 337.15 17.5487 336.821 17.8268 336.543C18.1049 336.265 18.4351 336.045 18.7983 335.895C19.1616 335.745 19.5509 335.668 19.9439 335.669H282.66C283.493 335.715 284.279 336.071 284.863 336.667C285.446 337.263 285.786 338.056 285.816 338.889C285.791 339.278 285.69 339.658 285.518 340.008C285.346 340.357 285.106 340.669 284.813 340.926C284.519 341.182 284.178 341.378 283.809 341.502C283.439 341.626 283.049 341.676 282.66 341.648Z" fill="#E6E7E8"/>
<path d="M213.757 353.462H19.9429C19.15 353.462 18.3895 353.147 17.8288 352.586C17.2681 352.026 16.9531 351.265 16.9531 350.472C16.9531 349.679 17.2681 348.919 17.8288 348.358C18.3895 347.797 19.15 347.482 19.9429 347.482H213.757C214.55 347.482 215.311 347.797 215.871 348.358C216.432 348.919 216.747 349.679 216.747 350.472C216.747 351.265 216.432 352.026 215.871 352.586C215.311 353.147 214.55 353.462 213.757 353.462Z" fill="#E6E7E8"/>
<path d="M26.9949 245.196C32.5398 245.196 37.0348 240.701 37.0348 235.157C37.0348 229.612 32.5398 225.117 26.9949 225.117C21.4501 225.117 16.9551 229.612 16.9551 235.157C16.9551 240.701 21.4501 245.196 26.9949 245.196Z" fill="#E6E7E8"/>
<path d="M282.661 257.388H19.9447C19.1518 257.388 18.3914 257.073 17.8307 256.513C17.27 255.952 16.9551 255.192 16.9551 254.399C16.9551 253.606 17.27 252.845 17.8307 252.285C18.3914 251.724 19.1518 251.409 19.9447 251.409H282.661C283.454 251.409 284.214 251.724 284.775 252.285C285.336 252.845 285.651 253.606 285.651 254.399C285.651 255.192 285.336 255.952 284.775 256.513C284.214 257.073 283.454 257.388 282.661 257.388Z" fill="#E6E7E8"/>
<path d="M246.074 269.202H19.9429C19.15 269.202 18.3895 268.887 17.8288 268.326C17.2681 267.765 16.9531 267.005 16.9531 266.212C16.9531 265.419 17.2681 264.659 17.8288 264.098C18.3895 263.537 19.15 263.222 19.9429 263.222H246.074C246.867 263.222 247.628 263.537 248.188 264.098C248.749 264.659 249.064 265.419 249.064 266.212C249.064 267.005 248.749 267.765 248.188 268.326C247.628 268.887 246.867 269.202 246.074 269.202Z" fill="#E6E7E8"/>
<path d="M230.726 281.016H19.9429C19.15 281.016 18.3895 280.701 17.8288 280.14C17.2681 279.579 16.9531 278.819 16.9531 278.026C16.9531 277.233 17.2681 276.473 17.8288 275.912C18.3895 275.351 19.15 275.036 19.9429 275.036H230.726C231.519 275.036 232.279 275.351 232.84 275.912C233.401 276.473 233.716 277.233 233.716 278.026C233.716 278.819 233.401 279.579 232.84 280.14C232.279 280.701 231.519 281.016 230.726 281.016Z" fill="#E6E7E8"/>
<path d="M235.089 413.189C276.151 413.189 309.439 379.901 309.439 338.838C309.439 297.776 276.151 264.488 235.089 264.488C194.026 264.488 160.738 297.776 160.738 338.838C160.738 379.901 194.026 413.189 235.089 413.189Z" fill="#0283FA"/>
<path d="M234.987 364.779C240.853 364.779 245.608 360.024 245.608 354.158C245.608 348.292 240.853 343.536 234.987 343.536C229.121 343.536 224.365 348.292 224.365 354.158C224.365 360.024 229.121 364.779 234.987 364.779Z" fill="#3F3D56"/>
<path d="M234.986 359.06C237.694 359.06 239.888 356.865 239.888 354.158C239.888 351.45 237.694 349.256 234.986 349.256C232.279 349.256 230.084 351.45 230.084 354.158C230.084 356.865 232.279 359.06 234.986 359.06Z" fill="#0283FA"/>
<path d="M254.702 377.801H215.474C211.589 377.797 207.865 376.252 205.119 373.506C202.372 370.759 200.827 367.035 200.822 363.151V345.165C200.827 341.28 202.372 337.556 205.118 334.81C207.865 332.063 211.589 330.518 215.474 330.513H254.702C258.587 330.518 262.311 332.063 265.057 334.81C267.804 337.556 269.349 341.28 269.353 345.165V363.151C269.349 367.035 267.804 370.759 265.057 373.506C262.31 376.252 258.587 377.797 254.702 377.801ZM215.474 332.047C211.996 332.051 208.662 333.435 206.203 335.894C203.744 338.353 202.36 341.687 202.356 345.165V363.151C202.36 366.629 203.744 369.963 206.203 372.421C208.662 374.88 211.996 376.264 215.474 376.267H254.702C258.18 376.264 261.514 374.88 263.973 372.421C266.432 369.963 267.815 366.628 267.819 363.151V345.165C267.815 341.687 266.432 338.353 263.973 335.894C261.514 333.435 258.18 332.051 254.702 332.047L215.474 332.047Z" fill="white"/>
<path d="M213.15 368.038H247.97C249.777 368.038 251.566 367.682 253.236 366.991C254.906 366.299 256.423 365.285 257.701 364.007C258.979 362.729 259.993 361.212 260.684 359.543C261.376 357.873 261.732 356.083 261.732 354.276V339.224C261.729 337.555 261.422 335.9 260.824 334.342C262.523 335.621 263.901 337.277 264.85 339.18C265.8 341.083 266.294 343.18 266.294 345.307V360.358C266.294 362.166 265.938 363.955 265.246 365.625C264.554 367.295 263.541 368.812 262.263 370.09C260.985 371.368 259.468 372.381 257.798 373.073C256.128 373.765 254.339 374.121 252.531 374.121H217.712C214.921 374.119 212.197 373.269 209.902 371.683C207.606 370.097 205.846 367.85 204.857 365.241C207.241 367.056 210.154 368.039 213.15 368.038Z" fill="#3F3D56"/>
<path d="M319.778 478.53L311.223 478.529L307.152 445.526L319.781 445.527L319.778 478.53Z" fill="#FFB6B6"/>
<path d="M320.081 487.455L293.77 487.454V487.121C293.77 484.405 294.849 481.801 296.769 479.88C298.69 477.96 301.295 476.881 304.011 476.88L308.817 473.234L317.784 476.881L320.081 476.881L320.081 487.455Z" fill="#2F2E41"/>
<path d="M380.32 478.53L388.876 478.529L392.947 445.526L380.318 445.527L380.32 478.53Z" fill="#FFB6B6"/>
<path d="M380.018 487.455L406.329 487.454V487.121C406.329 484.405 405.25 481.801 403.329 479.88C401.409 477.96 398.804 476.881 396.088 476.88L391.281 473.234L382.314 476.881L380.018 476.881L380.018 487.455Z" fill="#2F2E41"/>
<path d="M306.776 421.274C306.903 419.391 307.908 408.977 307.908 408.977L310.314 386.891L314.556 328.345L314.832 324.513L337.051 320.247L352.236 312.968L370.285 318.737L384.34 324.008C384.34 324.008 384.364 326.264 384.472 328.989C384.616 332.557 384.869 336.931 385.471 338.068C386.475 340.077 386.223 350.865 386.223 350.865C386.223 350.865 387.221 372.813 388.479 375.219C389.736 377.626 389.989 382.637 389.61 383.642C389.231 384.647 390.867 411.005 390.867 411.005C390.867 411.005 395.067 457.648 392.432 464.681C389.797 471.714 379.839 467.107 379.839 467.107C379.839 467.107 380.321 465.23 377.433 464.346C374.545 463.461 365.749 397.323 365.749 397.323C365.749 397.323 364.113 383.762 362.608 379.876C361.104 375.989 359.721 365.069 359.721 365.069C359.721 365.069 350.431 346.996 350.311 342.977C350.311 342.977 349.096 339.217 347.947 343.356C346.797 347.496 343.41 357.41 343.41 357.41L340.107 369.588L336.221 387.781L333.706 403.099C333.706 403.099 329.94 423.428 329.338 424.307C328.736 425.185 329.338 443.758 329.338 443.758C329.338 443.758 326.426 459.575 322.311 462.336C318.196 465.098 307.293 462.38 307.293 462.38C307.293 462.38 306.65 423.158 306.776 421.274Z" fill="#2F2E41"/>
<path d="M316.256 271.117L321.195 285.996L315.101 293.251L317.784 296.013L315.805 299.917L310.643 340.841L338.943 351.574L348.474 339.625L355.988 351.574L388.736 343.573L380.384 291.387V287.975L378.026 281.387V267.441L384.253 225.928L365.668 219.418L356.782 212.385L353.907 222.276L341.663 220.099L341.344 212.668L331.977 221.518L324.088 223.768L314.643 225.928L313.44 228.936L315.846 228.335L315.456 267.472L316.256 271.117Z" fill="#2F2E41"/>
<path d="M307.796 325.556L312.549 279.549L313.803 260.614L300.5 258.208C300.5 258.208 301.027 271.747 299.284 279.386C297.564 286.924 299.056 324.546 299.162 325.552C298.185 326.426 297.496 327.575 297.187 328.849C296.877 330.123 296.962 331.46 297.429 332.685C297.897 333.909 298.725 334.963 299.804 335.707C300.883 336.451 302.163 336.849 303.473 336.85C304.784 336.85 306.064 336.453 307.144 335.71C308.224 334.968 309.053 333.915 309.522 332.691C309.99 331.467 310.076 330.129 309.768 328.855C309.46 327.581 308.772 326.431 307.796 325.556Z" fill="#FFB6B6"/>
<path d="M294.819 289.082L298.519 289.846L311.214 292.475L311.918 292.62L313.416 286.664L315.154 284.811L318.463 267.471L318.638 266.569L323.637 255.884L327.096 223.768L314.233 226.079C314.167 226.145 314.107 226.217 314.047 226.289C312.2 228.383 310.882 231.295 308.728 234.225C301.719 243.761 296.341 266.93 296.552 279.624C296.558 279.829 296.347 280.052 296.094 280.28C294.902 281.377 294.124 282.851 293.891 284.454C293.659 286.058 293.987 287.692 294.819 289.082Z" fill="#2F2E41"/>
<path d="M390.498 325.556L385.745 279.549L384.49 260.614L397.794 258.208C397.794 258.208 397.267 271.747 399.009 279.386C400.729 286.924 399.238 324.546 399.131 325.552C400.108 326.426 400.797 327.575 401.107 328.849C401.416 330.123 401.331 331.46 400.864 332.685C400.397 333.909 399.569 334.963 398.489 335.707C397.41 336.451 396.131 336.849 394.82 336.85C393.509 336.85 392.229 336.453 391.149 335.71C390.069 334.968 389.24 333.915 388.772 332.691C388.303 331.467 388.217 330.129 388.526 328.855C388.834 327.581 389.521 326.431 390.498 325.556Z" fill="#FFB6B6"/>
<path d="M403.475 289.082L399.775 289.846L387.08 292.475L386.376 292.62L384.878 286.664L383.139 284.811L379.83 267.471L379.656 266.569L374.656 255.884L375.799 223.768L384.06 226.079C384.126 226.145 384.187 226.217 384.247 226.289C386.094 228.383 387.411 231.295 389.565 234.225C396.574 243.761 401.953 266.93 401.742 279.624C401.736 279.829 401.947 280.052 402.199 280.28C403.392 281.377 404.17 282.851 404.403 284.454C404.635 286.058 404.307 287.692 403.475 289.082Z" fill="#2F2E41"/>
<path d="M335.301 228.52L341.345 212.668L356.783 212.385L361.906 228.52L380.319 331.381C380.319 331.381 323.909 347.09 324.481 328.207C325.083 308.353 327.797 281.98 327.797 281.98L335.301 228.52Z" fill="#0283FA"/>
<path d="M348.717 208.234C358.761 208.234 366.903 200.092 366.903 190.048C366.903 180.004 358.761 171.862 348.717 171.862C338.673 171.862 330.531 180.004 330.531 190.048C330.531 200.092 338.673 208.234 348.717 208.234Z" fill="#FFB6B6"/>
<path d="M329.46 176.855C332.42 173.632 336.124 167.734 347.341 165.257C361.201 162.196 367.751 174.717 364.255 174.922C374.476 178.017 367.91 199.168 364.98 197.394C364.955 197.377 364.931 197.358 364.908 197.338C363.332 196.177 362.009 194.708 361.021 193.019C360.032 191.33 359.398 189.457 359.157 187.515L358.601 182.51C358.522 186.582 354.359 187.121 350.107 185.621C350.358 184.728 350.838 183.916 351.499 183.265C352.16 182.614 352.979 182.147 353.876 181.91C350.912 184.597 347.146 186.235 343.16 186.573C343.368 185.553 343.793 184.59 344.405 183.748C345.017 182.906 345.802 182.205 346.707 181.691L346.539 181.526C344.879 182.927 342.972 184.006 340.917 184.71C338.573 185.381 335.764 185.018 334.158 183.183C333.726 182.677 333.399 182.089 333.198 181.454C333.545 184.679 331.382 188.361 329.701 187.729C328.303 187.457 327.489 179 329.46 176.855Z" fill="#2F2E41"/>
<path d="M458.975 487.453C458.975 487.573 458.952 487.692 458.906 487.803C458.86 487.914 458.793 488.014 458.708 488.099C458.623 488.184 458.523 488.251 458.412 488.297C458.301 488.343 458.182 488.366 458.062 488.366H243.073C242.831 488.366 242.599 488.27 242.428 488.098C242.256 487.927 242.16 487.695 242.16 487.453C242.16 487.211 242.256 486.979 242.428 486.808C242.599 486.636 242.831 486.54 243.073 486.54H458.062C458.182 486.54 458.301 486.563 458.412 486.609C458.523 486.655 458.623 486.722 458.708 486.807C458.793 486.892 458.86 486.992 458.906 487.103C458.952 487.214 458.975 487.333 458.975 487.453Z" fill="#CCCCCC"/>
<path d="M235.694 298.525C228.422 298.525 222.029 301.817 218.41 306.759C222.279 303.943 226.95 302.444 231.736 302.483C242.997 302.483 252.158 310.371 252.158 320.067V328.127H256.116V316.109C256.116 306.413 246.955 298.525 235.694 298.525Z" fill="#3F3D56"/>
<path d="M258.834 332.252H211.342V318.278C211.342 307.005 221.994 297.833 235.088 297.833C248.182 297.833 258.834 307.005 258.834 318.278V332.252ZM212.876 330.718H257.3V318.278C257.3 307.85 247.336 299.367 235.088 299.367C222.84 299.367 212.876 307.85 212.876 318.278V330.718Z" fill="white"/>
<path d="M247.252 326.917H222.926C221.832 326.916 220.783 326.481 220.009 325.707C219.235 324.933 218.8 323.884 218.799 322.789V317.229C218.799 309.475 226.107 303.167 235.089 303.167C244.072 303.167 251.38 309.475 251.38 317.229V322.789C251.379 323.884 250.944 324.933 250.17 325.707C249.396 326.481 248.347 326.916 247.252 326.917ZM235.089 304.702C226.953 304.702 220.333 310.321 220.333 317.229V322.789C220.334 323.477 220.607 324.136 221.093 324.623C221.579 325.109 222.239 325.383 222.926 325.383H247.252C247.94 325.383 248.599 325.109 249.086 324.623C249.572 324.136 249.845 323.477 249.846 322.789V317.229C249.846 310.321 243.226 304.702 235.089 304.702Z" fill="white"/>
</g>
<defs>
<clipPath id="clip0_1_4053">
<rect width="458.974" height="398.366" fill="white" transform="translate(0 90)"/>
</clipPath>
</defs>
</svg>
