<svg width="377" height="445" viewBox="0 0 377 445" fill="none" xmlns="http://www.w3.org/2000/svg">
<g clip-path="url(#clip0_1_4031)">
<path d="M268.106 373.436L271.835 445.001C271.835 445.001 114.093 294.943 94.4412 251.038C74.7892 207.133 111.781 98.5256 111.781 98.5256L193.856 143.585L268.106 373.436Z" fill="#FFB6B6"/>
<path d="M26.2383 68.4868L1.9623 70.7976C1.9623 70.7976 -10.7537 98.5273 28.5502 100.837L26.2383 68.4868Z" fill="#FFB6B6"/>
<path d="M26.2383 111.235L1.9623 113.547C1.9623 113.547 -10.7537 141.277 28.5502 143.586L26.2383 111.235Z" fill="#FFB6B6"/>
<path d="M26.2383 157.451L1.9623 159.761C1.9623 159.761 -10.7537 187.491 28.5502 189.801L26.2383 157.451Z" fill="#FFB6B6"/>
<path d="M33.1738 203.666L8.89785 205.977C8.89785 205.977 -3.81813 233.706 35.4858 236.016L33.1738 203.666Z" fill="#FFB6B6"/>
<path d="M14.4194 79.6249H16.2617V29.19C16.2617 21.4482 19.3387 14.0235 24.8158 8.5492C30.2929 3.07492 37.7214 -0.000488281 45.4672 -0.000488281H152.374C160.12 -0.000488281 167.549 3.07492 173.026 8.5492C178.503 14.0235 181.58 21.4482 181.58 29.19V305.879C181.58 309.712 180.825 313.508 179.357 317.05C177.889 320.591 175.738 323.809 173.026 326.52C170.314 329.23 167.094 331.38 163.551 332.847C160.008 334.314 156.21 335.069 152.374 335.069H45.4672C41.6319 335.069 37.8341 334.314 34.2907 332.847C30.7473 331.38 27.5277 329.23 24.8158 326.52C22.1038 323.809 19.9525 320.591 18.4848 317.05C17.0171 313.508 16.2617 309.712 16.2617 305.879V115.525H14.4194V79.6249Z" fill="#3F3D56"/>
<path d="M44.2884 7.59437H58.2433C57.6016 9.16681 57.3566 10.8728 57.53 12.5622C57.7033 14.2515 58.2896 15.8723 59.2373 17.2819C60.185 18.6914 61.4649 19.8464 62.9643 20.6451C64.4638 21.4437 66.1367 21.8617 67.8358 21.862H129.083C130.782 21.8617 132.455 21.4439 133.955 20.6452C135.454 19.8465 136.735 18.6915 137.682 17.2819C138.63 15.8723 139.217 14.2514 139.39 12.562C139.563 10.8725 139.318 9.16638 138.677 7.59382H151.711C157.495 7.59397 163.043 9.89064 167.133 13.9786C171.223 18.0666 173.521 23.6111 173.521 29.3924V305.675C173.521 311.457 171.223 317.001 167.133 321.089C163.043 325.177 157.495 327.474 151.711 327.474H44.2884C38.5039 327.474 32.9564 325.178 28.8661 321.09C24.7759 317.001 22.478 311.457 22.478 305.675V29.3924C22.478 23.6109 24.7759 18.0662 28.8661 13.9781C32.9564 9.88995 38.5039 7.59326 44.2884 7.59326V7.59437Z" fill="white"/>
<path d="M116.562 84.9946H79.4367C76.9776 84.9946 74.9841 86.9871 74.9841 89.4449V91.6461C74.9841 94.1039 76.9776 96.0964 79.4367 96.0964H116.562C119.021 96.0964 121.014 94.1039 121.014 91.6461V89.4449C121.014 86.9871 119.021 84.9946 116.562 84.9946Z" fill="#0283FA"/>
<path d="M118.753 132.698H77.2453C74.7862 132.698 72.7927 134.691 72.7927 137.149V139.35C72.7927 141.808 74.7862 143.8 77.2453 143.8H118.753C121.212 143.8 123.206 141.808 123.206 139.35V137.149C123.206 134.691 121.212 132.698 118.753 132.698Z" fill="#E5E5E5"/>
<path d="M149.806 156.547H46.1945C43.7354 156.547 41.7419 158.54 41.7419 160.997V163.199C41.7419 165.656 43.7354 167.649 46.1945 167.649H149.806C152.265 167.649 154.259 165.656 154.259 163.199V160.997C154.259 158.54 152.265 156.547 149.806 156.547Z" fill="#E5E5E5"/>
<path d="M149.806 180.395H46.1945C43.7354 180.395 41.7419 182.387 41.7419 184.845V187.046C41.7419 189.504 43.7354 191.496 46.1945 191.496H149.806C152.265 191.496 154.259 189.504 154.259 187.046V184.845C154.259 182.387 152.265 180.395 149.806 180.395Z" fill="#E5E5E5"/>
<path d="M376.999 410.709L369.851 402.558L247.61 263.17L242.986 168.427L194.435 87.549L180.563 52.887C180.563 52.887 148.195 56.3532 174.783 122.211L185.765 157.45C175.865 178.761 170.737 201.974 170.737 225.469V306.221C170.737 325.235 261.395 428.807 271.947 444.628L376.999 410.709Z" fill="#FFB6B6"/>
<path opacity="0.2" d="M184.369 94.403L194.021 89.6618L193.692 88.9943L184.774 93.3755L171.312 58.0955L170.615 58.3614L184.369 94.403Z" fill="black"/>
<path opacity="0.2" d="M2.09153 70.4458L1.83374 71.1453L16.1323 76.4096L16.3901 75.7102L2.09153 70.4458Z" fill="black"/>
<path opacity="0.2" d="M2.09153 113.683L1.83374 114.382L16.1323 119.646L16.3901 118.947L2.09153 113.683Z" fill="black"/>
<path opacity="0.2" d="M2.09153 159.901L1.83374 160.601L16.1323 165.865L16.3901 165.166L2.09153 159.901Z" fill="black"/>
<path opacity="0.2" d="M9.58418 206.133L9.26147 206.805L16.223 210.144L16.5457 209.472L9.58418 206.133Z" fill="black"/>
<path d="M97.9174 287.522C80.1103 287.522 65.6747 273.094 65.6747 255.296C65.6747 237.498 80.1103 223.07 97.9174 223.07C115.725 223.07 130.16 237.498 130.16 255.296C130.16 273.094 115.725 287.522 97.9174 287.522Z" fill="#0283FA"/>
<path d="M94.4648 268.936C94.0729 268.936 93.6849 268.86 93.3229 268.71C92.9609 268.56 92.6321 268.34 92.3554 268.063L82.1334 257.29C81.5739 256.731 81.2595 255.972 81.2595 255.182C81.2595 254.391 81.5739 253.632 82.1334 253.073C82.6929 252.514 83.4518 252.2 84.2431 252.2C85.0343 252.2 85.7932 252.514 86.3527 253.073L94.4648 261.737L109.459 241.744C110.018 241.185 110.777 240.871 111.568 240.871C112.36 240.871 113.119 241.185 113.678 241.744C114.238 242.303 114.552 243.062 114.552 243.853C114.552 244.644 114.238 245.402 113.678 245.961L96.5742 268.063C96.2975 268.34 95.9687 268.56 95.6067 268.71C95.2447 268.86 94.8566 268.936 94.4648 268.936Z" fill="#F2F2F2"/>
</g>
<defs>
<clipPath id="clip0_1_4031">
<rect width="377" height="445" fill="white"/>
</clipPath>
</defs>
</svg>
