<svg width="39" height="31" viewBox="0 0 39 31" fill="none" xmlns="http://www.w3.org/2000/svg">
<path d="M36.0324 15.8277C39.655 12.2051 39.655 6.33834 36.0324 2.7157C32.8265 -0.490166 27.7741 -0.90693 24.0873 1.7283L23.9847 1.79883C23.0614 2.45923 22.8498 3.74158 23.5103 4.65846C24.1707 5.57534 25.453 5.79334 26.3699 5.13293L26.4725 5.0624C28.5306 3.59411 31.3454 3.82494 33.1279 5.61381C35.1476 7.63351 35.1476 10.9035 33.1279 12.9232L25.9339 20.13C23.9142 22.1497 20.6442 22.1497 18.6245 20.13C16.8356 18.3411 16.6048 15.5264 18.0731 13.4746L18.1436 13.372C18.804 12.4487 18.586 11.1664 17.6692 10.5124C16.7523 9.85838 15.4635 10.07 14.8095 10.9868L14.739 11.0894C12.0974 14.7698 12.5141 19.8222 15.72 23.0281C19.3426 26.6507 25.2094 26.6507 28.832 23.0281L36.0324 15.8277ZM2.71698 14.3274C-0.905658 17.95 -0.905658 23.8167 2.71698 27.4394C5.92285 30.6452 10.9753 31.062 14.662 28.4268L14.7646 28.3563C15.6879 27.6958 15.8995 26.4135 15.2391 25.4966C14.5787 24.5797 13.2963 24.3617 12.3795 25.0222L12.2769 25.0927C10.2187 26.561 7.40396 26.3301 5.62149 24.5413C3.6018 22.5152 3.6018 19.2452 5.62149 17.2255L12.8155 10.0251C14.8352 8.00539 18.1052 8.00539 20.1249 10.0251C21.9137 11.814 22.1445 14.6287 20.6763 16.6869L20.6057 16.7895C19.9453 17.7128 20.1633 18.9951 21.0802 19.6491C21.9971 20.3031 23.2858 20.0915 23.9398 19.1746L24.0104 19.0721C26.652 15.3853 26.2352 10.3329 23.0294 7.12698C19.4067 3.50435 13.54 3.50435 9.91736 7.12698L2.71698 14.3274Z" fill="#0283FA"/>
</svg>
