<svg width="47" height="12" viewBox="0 0 47 12" fill="none" xmlns="http://www.w3.org/2000/svg">
<path d="M5.14786 8.39108C5.34091 7.72956 5.74108 7.16551 6.13722 6.60353C6.24179 6.4563 6.34635 6.30906 6.4469 6.15975C6.84505 5.56874 7.07831 4.85331 7.07831 4.07981C7.07831 2.06207 5.49374 0.427979 3.53916 0.427979C1.58458 0.427979 0 2.06207 0 4.07773C0 4.85123 0.233263 5.56874 0.631418 6.15768C0.731962 6.30699 0.836528 6.45422 0.941094 6.60146C1.33925 7.16344 1.73942 7.72956 1.93045 8.38901H5.14786V8.39108ZM3.53916 11.0454C4.42797 11.0454 5.14786 10.3031 5.14786 9.38647V9.05467H1.93045V9.38647C1.93045 10.3031 2.65035 11.0454 3.53916 11.0454ZM1.93045 4.07773C1.93045 4.26022 1.78567 4.40953 1.60871 4.40953C1.43175 4.40953 1.28697 4.26022 1.28697 4.07773C1.28697 2.7941 2.29442 1.75516 3.53916 1.75516C3.71611 1.75516 3.8609 1.90447 3.8609 2.08696C3.8609 2.26945 3.71611 2.41875 3.53916 2.41875C2.65035 2.41875 1.93045 3.16115 1.93045 4.07773Z" fill="#0283FA"/>
<path d="M14.2768 3.89761V9.04547H13.1884V3.89761H14.2768ZM16.2229 6.81339V9.04547H15.1521V5.18457H16.1727V5.86576H16.2179C16.3034 5.64121 16.4466 5.46358 16.6477 5.33288C16.8488 5.20049 17.0926 5.1343 17.3792 5.1343C17.6473 5.1343 17.8811 5.19295 18.0805 5.31025C18.2799 5.42755 18.4349 5.59513 18.5455 5.81297C18.6561 6.02914 18.7114 6.28721 18.7114 6.58716V9.04547H17.6406V6.7782C17.6423 6.54192 17.582 6.35759 17.4596 6.22521C17.3373 6.09115 17.1689 6.02412 16.9544 6.02412C16.8103 6.02412 16.6829 6.05512 16.5723 6.11712C16.4634 6.17912 16.3779 6.26961 16.3159 6.38859C16.2556 6.50589 16.2246 6.64749 16.2229 6.81339ZM23.0166 5.18457L21.6668 9.04547H20.4602L19.1104 5.18457H20.2416L21.0434 7.94703H21.0836L21.8829 5.18457H23.0166ZM25.1846 9.12088C24.7941 9.12088 24.4565 9.03793 24.1716 8.87203C23.8884 8.70446 23.6697 8.47153 23.5155 8.17325C23.3614 7.87329 23.2843 7.52558 23.2843 7.1301C23.2843 6.73128 23.3614 6.38273 23.5155 6.08444C23.6697 5.78449 23.8884 5.55156 24.1716 5.38566C24.4565 5.21809 24.7941 5.1343 25.1846 5.1343C25.575 5.1343 25.9118 5.21809 26.195 5.38566C26.4799 5.55156 26.6994 5.78449 26.8536 6.08444C27.0078 6.38273 27.0849 6.73128 27.0849 7.1301C27.0849 7.52558 27.0078 7.87329 26.8536 8.17325C26.6994 8.47153 26.4799 8.70446 26.195 8.87203C25.9118 9.03793 25.575 9.12088 25.1846 9.12088ZM25.1896 8.29139C25.3672 8.29139 25.5155 8.24112 25.6345 8.14057C25.7535 8.03835 25.8431 7.89927 25.9035 7.72331C25.9655 7.54736 25.9965 7.34711 25.9965 7.12256C25.9965 6.89801 25.9655 6.69776 25.9035 6.52181C25.8431 6.34586 25.7535 6.20677 25.6345 6.10455C25.5155 6.00233 25.3672 5.95122 25.1896 5.95122C25.0103 5.95122 24.8595 6.00233 24.7371 6.10455C24.6165 6.20677 24.5252 6.34586 24.4632 6.52181C24.4028 6.69776 24.3727 6.89801 24.3727 7.12256C24.3727 7.34711 24.4028 7.54736 24.4632 7.72331C24.5252 7.89927 24.6165 8.03835 24.7371 8.14057C24.8595 8.24112 25.0103 8.29139 25.1896 8.29139ZM27.7811 9.04547V5.18457H28.8519V9.04547H27.7811ZM28.319 4.68688C28.1598 4.68688 28.0233 4.63409 27.9093 4.52852C27.797 4.42127 27.7409 4.29308 27.7409 4.14394C27.7409 3.99648 27.797 3.86996 27.9093 3.76439C28.0233 3.65714 28.1598 3.60352 28.319 3.60352C28.4782 3.60352 28.614 3.65714 28.7262 3.76439C28.8402 3.86996 28.8972 3.99648 28.8972 4.14394C28.8972 4.29308 28.8402 4.42127 28.7262 4.52852C28.614 4.63409 28.4782 4.68688 28.319 4.68688ZM31.4541 9.12088C31.0587 9.12088 30.7185 9.03709 30.4336 8.86952C30.1504 8.70027 29.9326 8.46567 29.7801 8.16571C29.6293 7.86575 29.5538 7.52055 29.5538 7.1301C29.5538 6.73463 29.6301 6.38775 29.7826 6.08947C29.9368 5.78951 30.1554 5.55575 30.4386 5.38818C30.7218 5.21893 31.0587 5.1343 31.4491 5.1343C31.7859 5.1343 32.0809 5.19547 32.3339 5.31779C32.5869 5.44012 32.7872 5.61189 32.9346 5.83308C33.0821 6.05428 33.1634 6.31402 33.1785 6.6123H32.168C32.1395 6.41959 32.0641 6.26459 31.9418 6.14728C31.8211 6.02831 31.6628 5.96882 31.4667 5.96882C31.3008 5.96882 31.1558 6.01406 31.0318 6.10455C30.9095 6.19337 30.814 6.32324 30.7453 6.49416C30.6766 6.66509 30.6422 6.87204 30.6422 7.11502C30.6422 7.36136 30.6758 7.57082 30.7428 7.74342C30.8115 7.91602 30.9078 8.04757 31.0318 8.13806C31.1558 8.22855 31.3008 8.27379 31.4667 8.27379C31.589 8.27379 31.6988 8.24866 31.796 8.19839C31.8948 8.14811 31.9761 8.07522 32.0398 7.9797C32.1052 7.88251 32.1479 7.76605 32.168 7.63031H33.1785C33.1617 7.92524 33.0813 8.18498 32.9372 8.40953C32.7947 8.6324 32.5978 8.80668 32.3465 8.93236C32.0951 9.05804 31.7977 9.12088 31.4541 9.12088ZM35.6236 9.12088C35.2264 9.12088 34.8846 9.04044 34.598 8.87957C34.3131 8.71703 34.0936 8.48745 33.9395 8.19085C33.7853 7.89256 33.7082 7.53982 33.7082 7.13262C33.7082 6.73547 33.7853 6.38691 33.9395 6.08696C34.0936 5.787 34.3106 5.55324 34.5905 5.38566C34.872 5.21809 35.2021 5.1343 35.5808 5.1343C35.8356 5.1343 36.0727 5.17536 36.2922 5.25747C36.5134 5.3379 36.7061 5.45939 36.8703 5.62194C37.0362 5.78449 37.1653 5.98893 37.2574 6.23526C37.3496 6.47992 37.3957 6.76647 37.3957 7.09491V7.38901H34.1355V6.72541H36.3877C36.3877 6.57125 36.3542 6.43467 36.2872 6.3157C36.2201 6.19672 36.1271 6.10371 36.0082 6.03669C35.8909 5.96798 35.7543 5.93363 35.5984 5.93363C35.4359 5.93363 35.2918 5.97133 35.1661 6.04674C35.0421 6.12047 34.9449 6.22018 34.8745 6.34586C34.8041 6.46986 34.7681 6.60811 34.7664 6.7606V7.39152C34.7664 7.58255 34.8016 7.74761 34.872 7.8867C34.9441 8.02579 35.0454 8.13303 35.1762 8.20844C35.3069 8.28385 35.4619 8.32155 35.6412 8.32155C35.7601 8.32155 35.8691 8.3048 35.9679 8.27128C36.0668 8.23777 36.1514 8.18749 36.2218 8.12046C36.2922 8.05343 36.3458 7.97132 36.3827 7.87413L37.373 7.93948C37.3228 8.17744 37.2197 8.38523 37.0639 8.56286C36.9097 8.73881 36.7103 8.87622 36.4656 8.97509C36.2226 9.07228 35.942 9.12088 35.6236 9.12088ZM40.6401 9.04547H39.4738L41.2509 3.89761H42.6535L44.4281 9.04547H43.2618L41.9723 5.07397H41.9321L40.6401 9.04547ZM40.5672 7.02202H43.3221V7.87162H40.5672V7.02202ZM46.1361 3.89761V9.04547H45.0477V3.89761H46.1361Z" fill="#181D27"/>
</svg>
