<svg width="203" height="48" viewBox="0 0 203 48" fill="none" xmlns="http://www.w3.org/2000/svg">
<path d="M90.3682 27.191H101.139L95.4438 18.0283L84.9912 34.5949H80.234L92.9479 14.6948C93.5007 13.8908 94.4219 13.405 95.4438 13.405C96.432 13.405 97.3533 13.8741 97.8894 14.6613L110.654 34.5949H105.896L103.652 30.8929H92.7468L90.3682 27.191ZM139.783 30.8929V13.606H135.746V32.5848C135.746 33.104 135.947 33.6066 136.333 33.9918C136.718 34.3771 137.237 34.5949 137.807 34.5949H156.216L158.595 30.8929H139.783ZM72.9976 27.794C76.9174 27.794 80.1 24.6281 80.1 20.7084C80.1 16.7887 76.9174 13.606 72.9976 13.606H55.3371V34.5949H59.3725V17.308H72.7296C74.6057 17.308 76.1133 18.8323 76.1133 20.7084C76.1133 22.5845 74.6057 24.1088 72.7296 24.1088L61.3491 24.0921L73.3996 34.5949H79.2625L71.1551 27.794H72.9976ZM30.4957 34.5949C24.7015 34.5949 19.9995 29.9046 19.9995 24.1088C19.9995 18.313 24.7015 13.606 30.4957 13.606H42.6953C48.4911 13.606 53.1897 18.313 53.1897 24.1088C53.1897 29.9046 48.4911 34.5949 42.6953 34.5949H30.4957ZM42.4239 30.8929C46.1778 30.8929 49.2181 27.861 49.2181 24.1088C49.2181 20.3566 46.1778 17.308 42.4239 17.308H30.7653C27.0131 17.308 23.9711 20.3566 23.9711 24.1088C23.9711 27.861 27.0131 30.8929 30.7653 30.8929H42.4239ZM119.079 34.5949C113.283 34.5949 108.576 29.9046 108.576 24.1088C108.576 18.313 113.283 13.606 119.079 13.606H133.569L131.207 17.308H119.347C115.595 17.308 112.546 20.3566 112.546 24.1088C112.546 27.861 115.595 30.8929 119.347 30.8929H133.904L131.525 34.5949H119.079ZM168.444 30.8929C165.345 30.8929 162.715 28.8158 161.911 25.9514H179.165L181.543 22.2495H161.911C162.715 19.4018 165.345 17.308 168.444 17.308H180.287L182.682 13.606H168.176C162.38 13.606 157.673 18.313 157.673 24.1088C157.673 29.9046 162.38 34.5949 168.176 34.5949H180.622L183 30.8929H168.444Z" fill="#EA1B22"/>
</svg>
