<svg width="34" height="36" viewBox="0 0 34 36" fill="none" xmlns="http://www.w3.org/2000/svg">
<path d="M16.6486 0C16.9677 0 17.2868 0.069128 17.5782 0.200471L30.6404 5.72379C32.1665 6.36668 33.3042 7.86676 33.2972 9.67791C33.2625 16.5354 30.4323 29.0821 18.48 34.7852C17.3215 35.3382 15.9757 35.3382 14.8173 34.7852C2.86498 29.0821 0.0347161 16.5354 3.15525e-05 9.67791C-0.00690536 7.86676 1.13075 6.36668 2.65687 5.72379L15.726 0.200471C16.0104 0.069128 16.3295 0 16.6486 0ZM16.6486 4.61775V30.755C26.2216 26.1304 28.7952 15.9063 28.8576 9.77469L16.6486 4.61775Z" fill="#0283FA"/>
</svg>
