<svg width="120" height="48" viewBox="0 0 120 48" fill="none" xmlns="http://www.w3.org/2000/svg">
<path fill-rule="evenodd" clip-rule="evenodd" d="M99.9993 24.5558C99.9993 18.8669 97.2438 14.3781 91.9771 14.3781C86.6882 14.3781 83.4882 18.8669 83.4882 24.5114C83.4882 31.2003 87.266 34.5781 92.6882 34.5781C95.3327 34.5781 97.3327 33.9781 98.8438 33.1336V28.6892C97.3327 29.4447 95.5993 29.9114 93.3993 29.9114C91.2438 29.9114 89.3327 29.1558 89.0882 26.5336H99.9549C99.9549 26.2447 99.9993 25.0892 99.9993 24.5558ZM89.0216 22.4447C89.0216 19.9336 90.5549 18.8892 91.9549 18.8892C93.3104 18.8892 94.7549 19.9336 94.7549 22.4447H89.0216Z" fill="#635BFF"/>
<path fill-rule="evenodd" clip-rule="evenodd" d="M74.9105 14.3781C72.7327 14.3781 71.3327 15.4003 70.5549 16.1114L70.266 14.7336H65.3771V40.6447L70.9327 39.4669L70.9549 33.1781C71.7549 33.7558 72.9327 34.5781 74.8882 34.5781C78.866 34.5781 82.4882 31.3781 82.4882 24.3336C82.466 17.8892 78.7994 14.3781 74.9105 14.3781ZM73.5771 29.6892C72.266 29.6892 71.4882 29.2225 70.9549 28.6447L70.9327 20.4003C71.5105 19.7558 72.3105 19.3114 73.5771 19.3114C75.5994 19.3114 76.9994 21.5781 76.9994 24.4892C76.9994 27.4669 75.6216 29.6892 73.5771 29.6892Z" fill="#635BFF"/>
<path fill-rule="evenodd" clip-rule="evenodd" d="M57.733 13.0669L63.3108 11.8669V7.35583L57.733 8.53361V13.0669Z" fill="#635BFF"/>
<path d="M63.3108 14.7557H57.733V34.2002H63.3108V14.7557Z" fill="#635BFF"/>
<path fill-rule="evenodd" clip-rule="evenodd" d="M51.7549 16.4003L51.3994 14.7558H46.5994V34.2003H52.1549V21.0225C53.466 19.3114 55.6883 19.6225 56.3771 19.8669V14.7558C55.666 14.4892 53.066 14.0003 51.7549 16.4003Z" fill="#635BFF"/>
<path fill-rule="evenodd" clip-rule="evenodd" d="M40.644 9.93359L35.2218 11.0891L35.1996 28.8891C35.1996 32.178 37.6663 34.6003 40.9551 34.6003C42.7774 34.6003 44.1107 34.2669 44.844 33.8669V29.3558C44.1329 29.6447 40.6218 30.6669 40.6218 27.378V19.4891H44.844V14.7558H40.6218L40.644 9.93359Z" fill="#635BFF"/>
<path fill-rule="evenodd" clip-rule="evenodd" d="M25.6217 20.4003C25.6217 19.5336 26.3328 19.2003 27.5106 19.2003C29.1995 19.2003 31.3328 19.7114 33.0217 20.6225V15.4003C31.1773 14.6669 29.3551 14.3781 27.5106 14.3781C22.9995 14.3781 19.9995 16.7336 19.9995 20.6669C19.9995 26.8003 28.444 25.8225 28.444 28.4669C28.444 29.4892 27.5551 29.8225 26.3106 29.8225C24.4662 29.8225 22.1106 29.0669 20.244 28.0447V33.3336C22.3106 34.2225 24.3995 34.6003 26.3106 34.6003C30.9328 34.6003 34.1106 32.3114 34.1106 28.3336C34.0884 21.7114 25.6217 22.8892 25.6217 20.4003Z" fill="#635BFF"/>
</svg>
