<svg width="32" height="42" viewBox="0 0 32 42" fill="none" xmlns="http://www.w3.org/2000/svg">
<path d="M25.6551 4.46275C26.132 3.36225 25.7764 2.07701 24.7985 1.37012C23.8206 0.663236 22.4871 0.727498 21.5738 1.51471L0.884272 19.5082C0.0760868 20.2151 -0.21486 21.3477 0.164987 22.3437C0.544834 23.3398 1.51466 24.0146 2.58954 24.0146H11.6008L5.38586 38.4254C4.90903 39.5259 5.26464 40.8111 6.24254 41.518C7.22044 42.2249 8.55395 42.1606 9.4672 41.3734L30.1567 23.38C30.9649 22.6731 31.2559 21.5405 30.876 20.5444C30.4962 19.5483 29.5344 18.8816 28.4515 18.8816H19.4402L25.6551 4.46275Z" fill="#0283FA"/>
</svg>
